<svg width="100" height="800" xmlns="http://www.w3.org/2000/svg">
 <!-- Created with Method Draw - http://github.com/duopixel/Method-Draw/ -->
 <g>
  <title>background</title>
  <rect fill="none" id="canvas_background" height="802" width="102" y="-1" x="-1"/>
  <g display="none" overflow="visible" y="0" x="0" height="100%" width="100%" id="canvasGrid">
   <rect fill="url(#gridpattern)" stroke-width="0" y="0" x="0" height="100%" width="100%"/>
  </g>
 </g>
 <g>
  <title>Layer 1</title>
  <path d="m-0.5,-0.54688c0,1 1,1 1,2c0,2 0.54049,3.0535 1,5c0.51374,2.17625 1.48626,2.82375 2,5c0.22975,0.97325 0.4588,1.69344 1,3c0.38268,0.92388 -0.38268,2.07612 0,3c0.5412,1.30656 1,2 1,3c0,1 0,2 0,3c0,1 0.29289,1.29289 1,2c0.70711,0.70711 0,2 0,3c0,1 -0.29289,2.29289 -1,3c-0.70711,0.70711 0,2 0,3c0,1 0.48626,2.82375 1,5c0.22975,0.97325 1,3 1,4c0,1 0,2 0,3c0,1 -0.38268,2.07612 0,3c0.5412,1.30656 1.69255,3.18601 3,5c0.82691,1.14727 1.4588,1.69344 2,3c0.38268,0.92388 1.4588,2.69344 2,4c0.38268,0.92388 0.18601,1.69255 2,3c2.29454,1.65381 2.69344,3.4588 4,4c0.92388,0.38268 1,1 1,2c0,1 0.22975,2.02675 0,3c-0.51374,2.17625 -2,4 -4,6c-2,2 -3.61732,4.07612 -4,5c-0.5412,1.30656 -1,2 -1,3c0,1 0.4588,2.69344 1,4c0.76537,1.84776 1.48626,2.82375 2,5c0.22975,0.97325 1,3 1,5c0,3 1,5 1,7c0,2 0.48626,3.82375 1,6c0.45951,1.9465 1,3 1,5c0,2 0.48626,3.82375 1,6c0.45951,1.9465 0.78985,3.07843 2,6c0.85571,2.06586 1,4 1,5c0,1 0,2 0,3c0,1 0.32036,2.02582 0,4c-0.50654,3.12144 -1,5 -1,8c0,3 0,6 0,9c0,3 0,5 0,6c0,1 0,2 0,3c0,2 0.48626,2.82375 1,5c0.22975,0.97325 0,3 0,5c0,2 0,5 0,7c0,3 0,5 0,6c0,2 1,4 2,6c1,2 1,3 1,4c0,1 -1,1 -3,3c-1,1 -1.61732,3.07613 -2,4c-0.5412,1.30656 -1,2 -1,4c0,2 0.49346,3.87856 1,7c0.16018,0.98709 0.61065,3.15927 2,6c1.5841,3.23892 2,4 3,6c1,2 1.23463,3.15224 2,5c0.5412,1.30656 1.48626,3.82375 2,6c0.68926,2.91975 1.49346,5.87856 2,9c0.48055,2.96126 0.51945,6.03873 1,9c0.50654,3.12143 1,6 1,9c0,2 0,3 0,4c0,1 0,2 0,3c0,1 0,2 0,3c0,1 1,3 1,5c0,3 -0.48626,4.82376 -1,7c-0.22975,0.97324 0.30745,3.186 -1,5c-0.8269,1.14728 -1.48626,3.82376 -2,6c-0.45951,1.9465 -1,4 -2,6c-1,2 -2,3 -2,5c0,1 -1,2 -1,3c0,2 -0.45951,3.0535 0,5c0.51374,2.17624 2,4 2,6c0,3 0,6 0,8c0,2 0,4 0,5c0,2 0,4 0,6c0,3 0,5 0,8c0,2 -0.45951,3.0535 0,5c0.51374,2.17624 1.41886,3.41885 3,5c1.58114,1.58115 2,3 3,4c1,1 3,2 4,3c1,1 1,2 1,3c0,1 0,2 0,4c0,3 0,6 0,8c0,3 1,6 1,8c0,3 0.48626,4.82376 1,7c0.22975,0.97324 0,2 0,3c0,1 -0.69255,1.186 -2,3c-0.8269,1.14728 -1.51945,3.03873 -2,6c-0.50654,3.12143 -1,5 -1,8c0,3 0,5 0,7c0,1 0,2 1,3c1,1 3.15224,1.23462 5,2c1.30656,0.5412 2.38688,2.9176 5,4c0.92388,0.38269 1.54049,1.0535 2,3c0.51374,2.17624 2,4 2,5c0,2 -0.77025,4.02676 -1,5c-0.51374,2.17624 -1,4 -2,6c-1,2 -1,4 -1,6c0,2 0,4 0,5c0,2 0,3 0,5c0,1 0.77025,3.02676 1,4c0.51374,2.17624 1.45881,2.69345 2,4c0.38268,0.92389 -0.38268,2.07611 0,3c0.54119,1.30655 1.82443,2.0979 3,4c0.52573,0.85065 0.07612,1.61731 1,2c1.30656,0.5412 2.45881,2.69345 3,4c0.38268,0.92389 0,2 0,3c0,1 -0.32367,1.52017 -2,3c-2.703,2.38617 -4.1731,4.85272 -5,6c-1.30745,1.814 -2.61732,3.07611 -3,4c-0.54119,1.30655 -1,2 -1,3c0,1 -0.38268,2.07611 0,3c0.54119,1.30658 1.70546,2.34619 4,4c1.81399,1.30743 3,2 4,3c1,1 2,2 2,3c0,1 0,3 0,5c0,2 -0.45881,3.69342 -1,5c-0.76537,1.84778 0,4 0,6c0,2 0,3 0,5c0,1 0,3 0,4c0,2 0,4 0,5c0,1 0,2 0,4c0,2 0,4 0,7c0,2 0,5 0,8c0,2 0,6 0,9c0,4 1,6 2,8c1,2 2.45049,3.4505 5,6c2.54951,2.5495 4.48626,4.82373 5,7c0.4595,1.94647 1,4 1,6c0,2 0.32037,4.02582 0,6c-0.50654,3.12146 -2.49346,4.87854 -3,8c-0.32037,1.97418 -0.48626,3.82373 -1,6c-0.68926,2.91974 -0.49346,5.87854 -1,9c-0.48055,2.96124 0,5 0,7c0,1 0,2 0,3c0,1 0.45881,1.69342 1,3c0.38268,0.92389 0.29289,2.29291 1,3c0.70711,0.70709 1.1731,1.85272 2,3c1.30745,1.81396 2,5 3,7c1,2 1.48626,2.82373 2,5c0.22975,0.97327 1,3 1,4c0,2 0,3 0,4c0,1 0,2 0,3c0,2 0,3 0,5c0,2 -1.49346,3.87854 -2,7c-0.32037,1.97418 -0.49346,3.87854 -1,7c-0.48055,2.96124 0,5 0,6c0,2 0,3 0,4c0,1 0.69255,3.18604 2,5c0.8269,1.14728 2.48626,3.82373 3,6c0.68926,2.91974 1,5 1,7c0,2 0,4 0,7c0,2 0,5 0,7c0,1 0,3 0,5c0,2 0,3 0,4c0,1 0,2 0,3c0,1 -0.29289,1.29291 -1,2c-0.70711,0.70709 0,2 0,3c0,1 0.82375,1.48627 3,2c0.97325,0.22974 1,1 1,2c0,2 -0.68926,5.08026 0,8c0.51374,2.17627 1.14429,3.93414 2,6c1.21015,2.92157 1.4588,4.69342 2,6c0.38268,0.92389 1.29289,0.29291 2,1c0.70711,0.70709 3,1 4,1c2,0 4.29289,0.29291 5,1c0.70711,0.70709 1,1 1,2c0,1 1,1 1,2c0,1 0.4588,1.69342 1,3c0.38268,0.92389 0.29289,1.29291 1,2c0.70711,0.70709 0.4588,1.69342 1,3c0.38268,0.92389 0.4588,1.69342 1,3c0.38268,0.92389 0,2 0,3l1,0l0,1" id="svg_1" stroke-width="1.5" stroke="#000" fill="none"/>
  <path d="m3.5,9.45313c0,1 0.14727,2.17309 -1,3c-1.81399,1.30745 -3.19028,3.88152 -5,7c-1.12234,1.934 -1,4 -1,5l0,2l0,1" id="svg_2" stroke-width="1.5" stroke="#000" fill="none"/>
  <path d="m94.5,790.45313c-1,0 -1.71412,1.21167 -4,4c-1.79319,2.18732 -5.79488,4.22021 -9,7c-3.77727,3.276 -9,7 -15,11l-5,4l-4,3" id="svg_3" stroke-width="1.5" stroke="#000" fill="none"/>
  <path d="m3.5,15.45313c0,1 0.76537,2.15224 0,4c-1.08239,2.61313 -4.41156,5.40401 -8,10c-2.61097,3.34407 -5,7 -7,10l-1,2" id="svg_4" stroke-width="1.5" stroke="#000" fill="none"/>
  <path d="m82.5,782.45313c0,1 0.07602,2.03986 -1,4c-2.80591,5.11145 -6,11 -11,19c-5,8 -9,12 -11,14l-2,1l-1,1" id="svg_5" stroke-width="1.5" stroke="#000" fill="none"/>
  <path d="m5.5,28.45313c-1,0 -1.14935,0.47427 -2,1c-1.90211,1.17557 -3.19028,3.88152 -5,7c-2.24468,3.868 -4,8 -6,11l-1,3l-1,4l-1,4" id="svg_6" stroke-width="1.5" stroke="#000" fill="none"/>
  <path d="m78.5,773.45313c-1,1 -2.87766,3.06598 -4,5c-1.80972,3.11847 -5.11214,6.91827 -8,11c-4.16494,5.88672 -8,12 -13,18c-5,6 -9,13 -14,20l0,1" id="svg_7" stroke-width="1.5" stroke="#000" fill="none"/>
  <path d="m70.5,760.45313c-4,3 -8.06527,5.90381 -14,10c-7.0797,4.88647 -13,9 -20,13c-7,4 -14,9 -21,16c-8,8 -15,17 -24,27l-7,11l-4,7" id="svg_8" stroke-width="1.5" stroke="#000" fill="none"/>
  <path d="m70.5,740.45313c-2,0 -7.16238,2.64636 -14,6c-9.24366,4.53375 -19.95527,13.07318 -33,21c-14.9492,9.08411 -36,21 -55,31l-17,7l-14,7l-7,5" id="svg_9" stroke-width="1.5" stroke="#000" fill="none"/>
  <path d="m63.5,708.45313c-1,0 -6.93269,3.16223 -14,6c-7.9287,3.18365 -19,7 -32,12c-13,5 -26.84291,11.34698 -42,18c-16.83444,7.38928 -30,14 -40,20l-4,2" id="svg_10" stroke-width="1.5" stroke="#000" fill="none"/>
  <path d="m63.5,659.45313c0,1 -1.8118,3.19556 -7,8c-6.76458,6.26422 -14.96882,13.03522 -24,21c-7.9726,7.03119 -16.88975,15.13647 -28,24c-8.91291,7.11053 -18,15 -26,22l-9,6l-6,5" id="svg_11" stroke-width="1.5" stroke="#000" fill="none"/>
  <path d="m58.5,634.45313c-3,2 -6.94184,4.08862 -13,8c-7.92563,5.11707 -17.89547,11.19769 -31,18c-15.87699,8.24139 -29,15 -41,22l-10,7l-9,8l-5,3" id="svg_12" stroke-width="1.5" stroke="#000" fill="none"/>
  <path d="m53.5,593.45313c-2,2 -7,6 -12,11c-7,7 -16,14 -28,24c-12,10 -21,17 -31,25l-9,7l-6,7l-3,2" id="svg_13" stroke-width="1.5" stroke="#000" fill="none"/>
  <path d="m51.5,558.45313c0,1 -2.07816,2.8985 -6,6c-6.12611,4.84467 -13.61954,11.44971 -23,19c-10.59561,8.52838 -24.62346,16.56982 -38,25c-13.64145,8.59717 -27,14 -40,21l-4,1" id="svg_14" stroke-width="1.5" stroke="#000" fill="none"/>
  <path d="m46.5,513.45313c-1,0 -2.132,0.75531 -6,3c-6.23695,3.61945 -15.14753,9.76508 -28,18c-15.17925,9.72577 -31,22 -46,34l-12,11l-10,7l-4,4" id="svg_15" stroke-width="1.5" stroke="#000" fill="none"/>
  <path d="m54.5,486.45313c-1,0 -2.08744,-0.20605 -7,2c-6.11949,2.74805 -13.98383,8.02975 -25,14c-12.98103,7.0351 -26.80477,15.37537 -40,22c-14.79327,7.42694 -23,12 -27,14l0,1" id="svg_16" stroke-width="1.5" stroke="#000" fill="none"/>
  <path d="m50.5,446.45313c-1,1 -4.14914,2.71863 -10,6c-8.22828,4.61472 -16.83425,11.2117 -27,19c-14.76575,11.3125 -30.90887,20.14529 -42,27c-9.92021,6.13101 -16,9 -21,12l-1,1" id="svg_17" stroke-width="1.5" stroke="#000" fill="none"/>
  <path d="m36.5,429.45313c-1,0 -5.03308,1.91324 -13,5c-10.04288,3.89108 -22.43356,9.33487 -35,18c-13.50238,9.31052 -27,18 -39,25l-2,1" id="svg_18" stroke-width="1.5" stroke="#000" fill="none"/>
  <path d="m39.5,403.45313c-1,1 -4.17698,1.34518 -9,3c-6.34511,2.17706 -12.89351,6.19669 -22,11c-13.84463,7.30249 -27,14 -38,20l-4,3l-1,1" id="svg_19" stroke-width="1.5" stroke="#000" fill="none"/>
  <path d="m35.5,371.45313c-3,1 -7.4391,3.51581 -13,9c-6.56431,6.47379 -14.36458,15.68353 -23,26c-7.3184,8.74307 -16,18 -23,26l-6,6l-4,4l-1,2" id="svg_20" stroke-width="1.5" stroke="#000" fill="none"/>
  <path d="m27.5,357.45313c0,1 -2.87605,1.34314 -8,3c-7.84622,2.53711 -17.2101,4.37262 -27,8c-9.23529,3.42191 -19,6 -26,9l-2,1" id="svg_21" stroke-width="1.5" stroke="#000" fill="none"/>
  <path d="m26.5,337.45313c-1,1 -3.80243,3.43289 -10,6c-8.76469,3.63046 -19,6 -26,9l-6,3l-2,1" id="svg_22" stroke-width="1.5" stroke="#000" fill="none"/>
  <path d="m21.5,317.45313c-1,1 -1.81266,1.20682 -4,3c-2.78832,2.28589 -6.93342,4.13702 -13,7c-8.90684,4.20337 -17,7 -23,9l-5,2l-6,1l-5,0" id="svg_23" stroke-width="1.5" stroke="#000" fill="none"/>
  <path d="m34.5,286.45313c-1,0 -2.00974,-0.19708 -4,0c-5.0742,0.50244 -13.16945,1.22525 -24,4c-12.25337,3.13928 -24,8 -31,11l-5,2l-1,0" id="svg_24" stroke-width="1.5" stroke="#000" fill="none"/>
  <path d="m31.5,255.45313c-1,0 -3.02476,1.93918 -8,4c-7.03606,2.91443 -18,7 -31,11l-10,5l-7,4" id="svg_25" stroke-width="1.5" stroke="#000" fill="none"/>
  <path d="m22.5,228.45313c-3,1 -7.96299,2.12625 -18,5c-10.96132,3.13838 -25,7 -36,11l-3,1" id="svg_26" stroke-width="1.5" stroke="#000" fill="none"/>
  <path d="m23.5,200.45313c-1,0 -4,0 -8,2c-6,3 -14.45405,7.51277 -22,15c-8.54789,8.48137 -13,15 -18,20l-3,3l0,1" id="svg_27" stroke-width="1.5" stroke="#000" fill="none"/>
  <path d="m22.5,171.45313c-1,2 -5.06066,3.92809 -11,9c-8.08374,6.90312 -16,15 -24,22l-6,5l-4,4" id="svg_28" stroke-width="1.5" stroke="#000" fill="none"/>
  <path d="m22.5,144.45313c-1,0 -2.96682,0.18323 -8,1c-7.95815,1.29143 -19,1 -30,1l-6,0l-1,0" id="svg_29" stroke-width="1.5" stroke="#000" fill="none"/>
  <path d="m19.5,117.45313c-1,1 -3.08953,1.87181 -6,4c-5.16872,3.77946 -10,8 -16,14l-5,5l-2,3" id="svg_30" stroke-width="1.5" stroke="#000" fill="none"/>
  <path d="m13.5,100.45313c-2,1 -4.89289,3.1377 -10,7c-6.86119,5.18884 -12,9 -16,12l-2,2" id="svg_31" stroke-width="1.5" stroke="#000" fill="none"/>
  <path d="m8.5,84.45313c-4,1 -9,2 -15,2l-8,0l-4,0" id="svg_32" stroke-width="1.5" stroke="#000" fill="none"/>
  <path d="m13.5,67.45313c-3,0 -10.11809,0.3754 -17,2c-6.15537,1.45309 -10,3 -12,3l-1,1" id="svg_33" stroke-width="1.5" stroke="#000" fill="none"/>
  <path d="m4.5,47.45313c-1,1 -3.79488,3.22021 -7,6c-3.77727,3.27601 -8,5 -12,9l-4,2l-4,3" id="svg_34" stroke-width="1.5" stroke="#000" fill="none"/>
 </g>
</svg>